<svg xmlns="http://www.w3.org/2000/svg" xmlns:xlink="http://www.w3.org/1999/xlink" version="1.1" x="0px" y="0px" viewBox="0 0 24 24" enable-background="new 0 0 24 24" xml:space="preserve"><g><path fill="#ffffff" d="M17.401,22.659c-0.129,0-0.255-0.05-0.349-0.142l-5.686-5.548c-0.184-0.18-0.202-0.47-0.041-0.671L23.183,1.528   c0.15-0.187,0.411-0.241,0.623-0.129c0.212,0.112,0.315,0.358,0.245,0.588l-6.172,20.319c-0.051,0.167-0.185,0.296-0.354,0.339   C17.484,22.654,17.443,22.659,17.401,22.659z M12.389,16.571l4.773,4.657l5.18-17.055L12.389,16.571z"></path><path fill="#ffffff" d="M7.739,14.453c-0.052,0-0.103-0.008-0.153-0.024l-7.166-2.312c-0.199-0.064-0.337-0.245-0.346-0.453   c-0.009-0.208,0.112-0.401,0.303-0.483l23-9.801c0.232-0.099,0.501-0.01,0.628,0.208c0.127,0.218,0.072,0.496-0.128,0.649   L8.043,14.35C7.954,14.418,7.847,14.453,7.739,14.453z M2,11.577l5.642,1.82l12.468-9.538L2,11.577z"></path><path fill="#ffffff" d="M7.666,21.573c-0.056,0-0.113-0.01-0.169-0.029c-0.199-0.071-0.331-0.26-0.331-0.471v-7.12   c0-0.156,0.073-0.303,0.196-0.397L23.196,1.444c0.202-0.154,0.487-0.133,0.664,0.05c0.176,0.183,0.188,0.469,0.026,0.665   L8.052,21.391C7.955,21.508,7.812,21.573,7.666,21.573z M8.166,14.2v5.479L20.35,4.88L8.166,14.2z"></path></g></svg>